<svg xmlns="http://www.w3.org/2000/svg" width="148.455" height="44.032" viewBox="0 0 148.455 44.032">
  <g id="Logo_owasp_white" transform="translate(-4.4 -8.9)">
    <path id="Path_276" data-name="Path 276" d="M26.416,8.9A22.016,22.016,0,1,0,48.432,30.916,22.008,22.008,0,0,0,26.416,8.9Zm0,40.638A18.622,18.622,0,1,1,45.038,30.916,18.625,18.625,0,0,1,26.416,49.538Z" transform="translate(0 0)"/>
    <path id="Path_277" data-name="Path 277" d="M1395.46,317.17a2.954,2.954,0,0,1-4.2,0,2.88,2.88,0,0,1-.864-2.108,2.967,2.967,0,1,1,5.06,2.108Zm-3.907-3.908a2.594,2.594,0,0,0,0,3.63,2.557,2.557,0,0,0,3.62,0,2.6,2.6,0,0,0,0-3.63,2.545,2.545,0,0,0-3.609,0Zm1.748.164a2.733,2.733,0,0,1,.894.113.8.8,0,0,1,.5.823c0,.411-.1.5-.319.648a1.208,1.208,0,0,1-.473.154.759.759,0,0,1,.555.319.928.928,0,0,1,.175.5v.483a.327.327,0,0,0,.031.175l.02.041h-.534v-.175a2.156,2.156,0,0,1-.01-.257.8.8,0,0,0-.308-.751,1.376,1.376,0,0,0-.638-.1h-.452v1.285h-.576v-3.26h1.131Zm.627.514a1.488,1.488,0,0,0-.7-.123h-.493V315h.514a1.478,1.478,0,0,0,.545-.072.5.5,0,0,0,.339-.514c0-.257-.072-.4-.216-.473Z" transform="translate(-1243.479 -272.022)"/>
    <g id="Group_229" data-name="Group 229" transform="translate(53.46 20.4)">
      <path id="Path_278" data-name="Path 278" d="M685.1,122.71h-2.3v14.1a6.677,6.677,0,0,1-.154,1.563,1.91,1.91,0,0,1-1.224,1.47,7.322,7.322,0,0,1-4.977,0,1.973,1.973,0,0,1-1.245-1.47,6.783,6.783,0,0,1-.175-1.707V122.7h-2.313v13.872a8.183,8.183,0,0,1-.1,1.5,2.25,2.25,0,0,1-1.8,1.943,8.53,8.53,0,0,1-4.011,0,2.16,2.16,0,0,1-1.727-1.707,5.351,5.351,0,0,1-.1-.71c-.021-.309-.041-.617-.041-.925V122.7H662.6s0,9.656.01,14.036a15.142,15.142,0,0,0,.072,1.532,3.624,3.624,0,0,0,2.653,3.373,11.235,11.235,0,0,0,3.784.442,5.518,5.518,0,0,0,4.74-2.2,4.639,4.639,0,0,0,2.8,1.933,11.11,11.11,0,0,0,5.45-.082,3.516,3.516,0,0,0,2.612-2.18,6.555,6.555,0,0,0,.36-2.355V122.71Z" transform="translate(-643.978 -122.498)"/>
      <path id="Path_279" data-name="Path 279" d="M933.208,125.9a9.49,9.49,0,0,0-.144-1.707,3.341,3.341,0,0,0-1.851-2.56,8.334,8.334,0,0,0-3.1-.782,21.174,21.174,0,0,0-6.19.237c-2.3.473-3.424,1.707-3.486,4.041-.062,2.4-.031,7.188-.041,7.188v6.848h0v.977h2.334v-.874c-.01-1.985-.01-5.882-.01-5.882v-.37h10.2v.411s0,3.825-.01,5.728h0v.977h2.324V125.884Zm-2.3,5.121H920.7V130.7s.01-3.4.021-5.111a3.946,3.946,0,0,1,.113-.987,2.389,2.389,0,0,1,2.1-1.779,16.3,16.3,0,0,1,5.193-.113,6.689,6.689,0,0,1,.977.226,2.293,2.293,0,0,1,1.758,2.283c.031.524.031,1.049.031,1.573v4.237Z" transform="translate(-873.474 -120.736)"/>
      <path id="Path_280" data-name="Path 280" d="M1109.325,130.581c-1.707-.452-3.475-.607-5.2-.925-.853-.154-1.717-.267-2.571-.442a1.972,1.972,0,0,1-1.728-2.118c0-.432,0-.864.01-1.285a2.334,2.334,0,0,1,2.016-2.571,13.163,13.163,0,0,1,6.509.113,2.157,2.157,0,0,1,1.594,2.026,7.931,7.931,0,0,1,.051,1.573h2.3v-.576c0-.37,0-.71-.031-1.069a3.708,3.708,0,0,0-3.115-3.753,20.221,20.221,0,0,0-8.648.031,3.673,3.673,0,0,0-2.941,3.321,23.364,23.364,0,0,0-.061,2.4,3.693,3.693,0,0,0,2.7,3.7,28.915,28.915,0,0,0,3.856.72c1.244.226,2.5.38,3.743.617a2.3,2.3,0,0,1,2.108,1.851,7.244,7.244,0,0,1-.021,2.488,2.055,2.055,0,0,1-1.532,1.758,13.311,13.311,0,0,1-6.756.062,2.218,2.218,0,0,1-1.759-2.1c-.031-.288-.041-.586-.051-.874h0v-1.532h-2.3v1.275h0a9.627,9.627,0,0,0,.154,2.1,3.3,3.3,0,0,0,1.789,2.406,6.654,6.654,0,0,0,1.748.607,19.967,19.967,0,0,0,5.131.278,12.037,12.037,0,0,0,3.136-.5,3.621,3.621,0,0,0,2.725-2.951,16.388,16.388,0,0,0,.123-2.745,3.716,3.716,0,0,0-2.993-3.877Z" transform="translate(-1034.157 -121.063)"/>
      <path id="Path_281" data-name="Path 281" d="M496.41,125.011a3.635,3.635,0,0,0-1.8-3.219,5.89,5.89,0,0,0-1.738-.638,19.037,19.037,0,0,0-4.771-.339,13.466,13.466,0,0,0-3.671.514,3.736,3.736,0,0,0-2.53,2.046,5.918,5.918,0,0,0-.4,2.386v9.7c0,.154,0,.309.01.463a4.289,4.289,0,0,0,1.028,2.9,4.68,4.68,0,0,0,2.53,1.244,21.284,21.284,0,0,0,7.085.134,7.856,7.856,0,0,0,1.995-.545,3.62,3.62,0,0,0,2.262-3.434c.1-1.872.01-3.743.051-5.614-.041-1.861.062-3.722-.051-5.584Zm-2.272,10.17c0,.165,0,.329-.01.5a2.332,2.332,0,0,1-1.964,2.54,13.094,13.094,0,0,1-6.581-.062,2.209,2.209,0,0,1-1.707-2.129c-.031-.381-.062-.761-.062-1.141v-8.658a9.659,9.659,0,0,1,.082-1.213,2.324,2.324,0,0,1,2.067-2.108,14.535,14.535,0,0,1,6.067,0,2.382,2.382,0,0,1,2.1,2.55c.041,1.717.021,8.206.021,9.728Z" transform="translate(-481.5 -120.788)"/>
      <path id="Path_282" data-name="Path 282" d="M1292.295,126.78a3.856,3.856,0,0,0-2.067-3.157,7.385,7.385,0,0,0-3.558-.792c-2.777-.031-9.07-.031-9.07-.031V142h2.314v-5.532c-.011,0,4.308.01,6.3,0a11.819,11.819,0,0,0,2.622-.267,4.143,4.143,0,0,0,3.456-3.815,30.011,30.011,0,0,0-.011-5.6Zm-2.345,5.5a2.593,2.593,0,0,1-2.026,2.17,6.185,6.185,0,0,1-1.738.206H1279.9V124.641h6.612a4.832,4.832,0,0,1,1.789.319,2.56,2.56,0,0,1,1.7,2.242,19.378,19.378,0,0,1-.041,5.059Z" transform="translate(-1195.738 -122.588)"/>
    </g>
    <path id="Path_283" data-name="Path 283" d="M94.42,96.526a6.618,6.618,0,0,0-1.347-.679,1.2,1.2,0,0,0-.781,0,8.5,8.5,0,0,0-1.224.5c-.062.01-.082-.051-.123-.072a3.964,3.964,0,0,0-1.409-1.419c-.113-.062-.113-.113-.062-.216a8.292,8.292,0,0,0,.483-1.213,1.094,1.094,0,0,0,0-.679,6.356,6.356,0,0,0-.679-1.378c-.051-.082-.113-.123-.206-.072s-.082.134-.031.216c.021.031.031.051.051.082a6.332,6.332,0,0,1,.586,1.183.908.908,0,0,1,0,.617,9.009,9.009,0,0,1-.463,1.131.055.055,0,0,1-.051.051.334.334,0,0,1-.041-.134.913.913,0,0,0-.853-.668.846.846,0,0,0-.854.617.124.124,0,0,1-.072.1,1.487,1.487,0,0,0-.915.843.447.447,0,0,0-.093.216,2.316,2.316,0,0,0,.062,1.347c.031.113.072.216.113.329a.175.175,0,0,1-.144-.021,2.6,2.6,0,0,0-1.429-.041c-.134.041-.237.051-.329-.072l-.771-1.172a.269.269,0,0,1-.041-.216,12.4,12.4,0,0,0,.144-1.748,1.263,1.263,0,0,0-.021-.278c0-.031-.01-.062-.051-.062a.077.077,0,0,0-.072.062,2.833,2.833,0,0,0-.082.278,18.079,18.079,0,0,0-.278,1.82.733.733,0,0,0,.062.422c.144.36.288.72.422,1.08a.159.159,0,0,1,.021.123c-.021,0-.031,0-.041-.01-.288-.154-.586-.308-.874-.452a.278.278,0,0,1-.165-.206c-.175-.586-.35-1.172-.555-1.748a4.012,4.012,0,0,0-.206-.483c-.021-.041-.041-.093-.093-.082s-.041.072-.041.113c0,.113.021.216.031.329.1.607.257,1.2.4,1.8a.961.961,0,0,0,.4.689l.021.021c0,.031.1.072,0,.1-.257-.082-.514-.175-.781-.257a.344.344,0,0,1-.175-.123,13.373,13.373,0,0,0-1.111-1.183,1.544,1.544,0,0,0-.257-.2c-.031-.01-.062-.041-.093-.01s-.01.062,0,.093a2.242,2.242,0,0,0,.175.3c.329.473.71.915,1.08,1.357a.391.391,0,0,0,.134.093c.535.257,1.08.514,1.614.771.051.021.144.031.093.134-.041.082-.01.226-.2.2-.422-.093-.843-.165-1.255-.236-1.985-.37-3.99-.689-5.995-.946a50.171,50.171,0,0,0-6.684-.411,22.731,22.731,0,0,0-3.239.185,2.573,2.573,0,0,0-.555.134c-.134.051-.154.123-.1.247a.785.785,0,0,0,.175.236,3.976,3.976,0,0,0,.627.545,20.4,20.4,0,0,0,2.293,1.44,12.257,12.257,0,0,0,3.825,1.542,13.425,13.425,0,0,0,2.643.3,2.674,2.674,0,0,0,1.162-.237c.329-.165.627-.37.936-.555a3.252,3.252,0,0,1,1.46-.524c.864-.062,1.728-.154,2.591-.236l2.1-.216c.062,0,.113-.021.123.072a3.183,3.183,0,0,0,.391.967.13.13,0,0,0,.041.093c.041.062-.021.041-.041.051a2.008,2.008,0,0,0-1.748-.093,4.966,4.966,0,0,0-1.234.679,21.455,21.455,0,0,0-2.3,2.005,16.894,16.894,0,0,0-2.365,2.7,41.225,41.225,0,0,0-3.62,6.612h0l-.236.524.432-.185h0a47.97,47.97,0,0,0,4.36-2.19,23.081,23.081,0,0,0,3.4-2.273,26.492,26.492,0,0,0,3.105-3.157,7.182,7.182,0,0,0,1.111-1.656,2.084,2.084,0,0,0-.021-2.118l.051-.021a3.356,3.356,0,0,0,1.069.483c.1.021.123.072.113.165-.144,1.388-.288,2.766-.411,4.154a5.35,5.35,0,0,1-.144,1.069,4.492,4.492,0,0,1-.658,1.265,3.068,3.068,0,0,0-.555,1.882,12.358,12.358,0,0,0,.339,2.6,8.686,8.686,0,0,0,.432,1.532,25.575,25.575,0,0,0,2.221,4.031,5.862,5.862,0,0,0,.771.977,1.26,1.26,0,0,0,.319.247c.123.051.2.021.237-.1a1.591,1.591,0,0,0,.072-.236,9.224,9.224,0,0,0,.175-1.419,47.026,47.026,0,0,0-.164-7.219c-.134-1.491-.36-2.961-.586-4.442s-.494-2.951-.782-4.422c-.031-.175.1-.154.175-.2.1-.062.113.031.144.093l.771,1.6a.431.431,0,0,0,.093.144c.463.391.925.792,1.419,1.131a1.911,1.911,0,0,0,.2.113c.041.021.082.062.123.01s0-.082-.031-.123c-.072-.093-.144-.185-.216-.267a8.057,8.057,0,0,0-.915-.864,1.2,1.2,0,0,1-.463-.7,1.833,1.833,0,0,0-.093-.339c-.021-.082-.082-.154-.051-.247.093.1.2.206.288.319a.4.4,0,0,0,.216.134c.555.144,1.121.288,1.686.4a3.989,3.989,0,0,0,.771.113c.031,0,.082,0,.093-.031s-.031-.062-.062-.082a3.048,3.048,0,0,0-.319-.154c-.638-.247-1.3-.442-1.954-.638a.291.291,0,0,1-.185-.144l-.463-.895v-.041c.051-.01.093.021.134.031.391.154.792.309,1.183.463a.392.392,0,0,0,.185.031c.638-.082,1.285-.154,1.923-.288a1.434,1.434,0,0,0,.3-.093.077.077,0,0,0,.062-.072c0-.031-.041-.041-.072-.041a1.334,1.334,0,0,0-.35-.021,11.541,11.541,0,0,0-1.686.144.321.321,0,0,1-.2-.041c-.411-.278-.833-.545-1.244-.812-.072-.051-.093-.093-.062-.175a2.553,2.553,0,0,0,.072-1.244c-.031-.165-.082-.319-.123-.483a.128.128,0,0,1,.123.031,2.6,2.6,0,0,0,1.275.216,1.539,1.539,0,0,0,1.326-.884.5.5,0,0,1,.288-.288.815.815,0,0,0,.494-.854.945.945,0,0,0-.7-.8.1.1,0,0,1-.1-.051c.021-.01.051-.031.072-.041.319-.154.638-.278.967-.411a1.175,1.175,0,0,1,.967.031,8.037,8.037,0,0,1,1.059.566c.082.051.154.062.216-.021a.138.138,0,0,0-.062-.206Z" transform="translate(-54.771 -73.908)"/>
  </g>
</svg>
