<svg id="Layer_1" data-name="Layer 1" xmlns="http://www.w3.org/2000/svg" viewBox="0 0 192.2 40.5"><path d="M169.5,30.3H155.3l-3.5,16.4,10.8.1,1.8-8.6h3.4c4.1,0,7,2.4,7,8.4,0,6.7-3,16.4-10.8,16.4h-4.9l1.8-8.6-10.9.1-3.5,16.3h17.7c14.9,0,21.8-11.4,21.8-23.7C186.3,37.8,180.8,30.3,169.5,30.3Z" transform="translate(-31.9 -30.3)"/><path d="M141.7,45.9" transform="translate(-31.9 -30.3)"/><path d="M222.4,38.5l1.7-8.1H196.8l-3.2,15.2c5.2.5,12.3,1.6,14.7,4.2-2.7,3-11.2,4-16.5,4.4l-3.5,16.5h28.4l2.8-8.1H200.4l1.8-8.5h16.2l1.7-8.1H204l1.6-7.4h16.8Z" transform="translate(-31.9 -30.3)"/><path d="M51.2,53.3H48.6a93.15,93.15,0,0,1-16.7,0l.1-5.8a92.1,92.1,0,0,1,16.6.1h2.6" transform="translate(-31.9 -30.3)"/><path d="M72,45.7a9.33,9.33,0,0,0,1.6-5.4c0-5.7-4.2-10-13.1-10H45.8L37.2,70.6H56.1c9.6,0,15.7-5.6,15.7-12.9a7.37,7.37,0,0,0-.9-3.8c-3.5,0-6.3-.1-6.7-.1l-.3,2.1-1.5-.2,1.7-12,1.5.2-.3,1.9C66.8,45.8,69.2,45.8,72,45.7ZM53.9,63.5H49.3L51.5,53h3.9c3.5,0,5.4,1.4,5.4,4.6C60.7,61.7,57.8,63.5,53.9,63.5Zm3.2-17.4H53l1.8-8.5h3.6c2.7,0,4.5,1,4.5,3.7C62.9,44.4,60.9,46.1,57.1,46.1Z" transform="translate(-31.9 -30.3)"/><path d="M86.5,45.6h4.6l3.3-15.3H83.5L80.2,45.6Z" transform="translate(-31.9 -30.3)"/><path d="M89.3,54H78.5L75,70.7h26.3l2.8-8.2H87.5Z" transform="translate(-31.9 -30.3)"/><path d="M139.7,30.3H125.1c-2,3.8-4.7,9.5-7.6,15.4h9.8c1.3-3,2.4-5.8,3.3-8.3h.2c-.1,3.7.1,8.9.4,14.3l.1,1.9h0v.1h-7.7v-.1H113.4c-3.3,6.8-6.3,13.2-8.1,16.8h11.1l3.8-8.3h11l.5,8.3h10.8Z" transform="translate(-31.9 -30.3)"/></svg>