<?xml version="1.0" encoding="utf-8"?>
<!-- Generator: Adobe Illustrator 25.2.3, SVG Export Plug-In . SVG Version: 6.00 Build 0)  -->
<svg version="1.1" id="Layer_1" xmlns="http://www.w3.org/2000/svg" xmlns:xlink="http://www.w3.org/1999/xlink" x="0px" y="0px"
	 viewBox="0 0 256 101" style="enable-background:new 0 0 256 101;" xml:space="preserve">
<style type="text/css">
	.st0{fill:#FFFFFF;}
	.st1{fill:#231F20;}
</style>
<path class="st0" d="M169.5,30.3h-14.2l-3.5,16.4l10.8,0.1l1.8-8.6h3.4c4.1,0,7,2.4,7,8.4c0,6.7-3,16.4-10.8,16.4h-4.9l1.8-8.6
	l-10.9,0.1l-3.5,16.3h17.7c14.9,0,21.8-11.4,21.8-23.7C186.3,37.8,180.8,30.3,169.5,30.3z"/>
<path class="st1" d="M141.7,45.9"/>
<path class="st0" d="M222.4,38.5l1.7-8.1h-27.3l-3.2,15.2c5.2,0.5,12.3,1.6,14.7,4.2c-2.7,3-11.2,4-16.5,4.4l-3.5,16.5h28.4l2.8-8.1
	h-19.1l1.8-8.5h16.2l1.7-8.1H204l1.6-7.4H222.4z"/>
<path class="st0" d="M51.2,53.3h-2.6c-5.3,0.6-11.5,0.4-16.7,0l0.1-5.8c5.2-0.4,11.3-0.5,16.6,0.1h2.6"/>
<path class="st0" d="M72,45.7c1-1.5,1.6-3.2,1.6-5.4c0-5.7-4.2-10-13.1-10H45.8l-8.6,40.3h18.9c9.6,0,15.7-5.6,15.7-12.9
	c0-1.5-0.3-2.8-0.9-3.8c-3.5,0-6.3-0.1-6.7-0.1l-0.3,2.1l-1.5-0.2l1.7-12l1.5,0.2l-0.3,1.9C66.8,45.8,69.2,45.8,72,45.7z M53.9,63.5
	h-4.6L51.5,53h3.9c3.5,0,5.4,1.4,5.4,4.6C60.7,61.7,57.8,63.5,53.9,63.5z M57.1,46.1H53l1.8-8.5h3.6c2.7,0,4.5,1,4.5,3.7
	C62.9,44.4,60.9,46.1,57.1,46.1z"/>
<g>
	<path class="st0" d="M86.5,45.6l4.6,0l3.3-15.3H83.5l-3.3,15.3C82.5,45.6,84.7,45.6,86.5,45.6z"/>
	<path class="st0" d="M89.3,54l-2.8,0c-2.2,0-5.1,0-8,0l-3.5,16.7h26.3l2.8-8.2H87.5L89.3,54z"/>
</g>
<path class="st0" d="M139.7,30.3h-14.6c-2,3.8-4.7,9.5-7.6,15.4l9.8,0c1.3-3,2.4-5.8,3.3-8.3h0.2c-0.1,3.7,0.1,8.9,0.4,14.3l0.1,1.9
	l0,0c0,0,0,0.1,0,0.1h-7.7c0,0,0-0.1,0-0.1l-10.2,0c-3.3,6.8-6.3,13.2-8.1,16.8h11.1l3.8-8.3h11l0.5,8.3h10.8L139.7,30.3z"/>
</svg>
